<svg xmlns="http://www.w3.org/2000/svg" viewBox="0 0 800 500" width="800" height="500">
  <rect width="800" height="500" fill="#f8fafc"/>
  <rect x="0" y="0" width="800" height="56" fill="#fff" stroke="#e2e8f0"/>
  <circle cx="28" cy="28" r="10" fill="#0ea5e9"/>
  <text x="50" y="34" font-family="ui-sans-serif,system-ui,sans-serif" font-size="16" font-weight="700" fill="#0f172a">Acme AI</text>
  <text x="700" y="34" font-family="ui-sans-serif,system-ui,sans-serif" font-size="13" fill="#475569">jane@example.com</text>
  <text x="60" y="106" font-family="ui-sans-serif,system-ui,sans-serif" font-size="22" font-weight="700" fill="#0f172a">My account</text>
  <rect x="60" y="130" width="350" height="160" rx="10" fill="#fff" stroke="#e2e8f0"/>
  <text x="80" y="158" font-family="ui-sans-serif,system-ui,sans-serif" font-size="13" font-weight="700" fill="#0f172a">Active subscription</text>
  <text x="80" y="186" font-family="ui-sans-serif,system-ui,sans-serif" font-size="20" font-weight="700" fill="#0ea5e9">Pro</text>
  <text x="80" y="208" font-family="ui-sans-serif,system-ui,sans-serif" font-size="12" fill="#64748b">Renews 2026-06-12</text>
  <text x="80" y="240" font-family="ui-sans-serif,system-ui,sans-serif" font-size="12" fill="#64748b">Quota used</text>
  <rect x="80" y="250" width="300" height="10" rx="5" fill="#e2e8f0"/>
  <rect x="80" y="250" width="186" height="10" rx="5" fill="#0ea5e9"/>
  <text x="80" y="278" font-family="ui-sans-serif,system-ui,sans-serif" font-size="11" fill="#475569">3.1 M / 5 M tokens</text>
  <rect x="430" y="130" width="310" height="160" rx="10" fill="#fff" stroke="#e2e8f0"/>
  <text x="450" y="158" font-family="ui-sans-serif,system-ui,sans-serif" font-size="13" font-weight="700" fill="#0f172a">API tokens</text>
  <rect x="450" y="172" width="270" height="36" rx="6" fill="#f1f5f9"/>
  <text x="464" y="194" font-family="ui-mono,SFMono-Regular,Menlo,monospace" font-size="11" fill="#0f172a">sk-acme-7f2c...d9a1</text>
  <text x="650" y="194" font-family="ui-sans-serif,system-ui,sans-serif" font-size="11" fill="#0ea5e9">copy</text>
  <text x="694" y="194" font-family="ui-sans-serif,system-ui,sans-serif" font-size="11" fill="#dc2626">revoke</text>
  <rect x="450" y="218" width="270" height="36" rx="6" fill="#f1f5f9"/>
  <text x="464" y="240" font-family="ui-mono,SFMono-Regular,Menlo,monospace" font-size="11" fill="#0f172a">sk-acme-2b81...e44c</text>
  <text x="650" y="240" font-family="ui-sans-serif,system-ui,sans-serif" font-size="11" fill="#0ea5e9">copy</text>
  <text x="694" y="240" font-family="ui-sans-serif,system-ui,sans-serif" font-size="11" fill="#dc2626">revoke</text>
  <rect x="60" y="310" width="680" height="150" rx="10" fill="#fff" stroke="#e2e8f0"/>
  <text x="80" y="338" font-family="ui-sans-serif,system-ui,sans-serif" font-size="13" font-weight="700" fill="#0f172a">Usage — last 7 days</text>
  <polyline points="80,440 180,420 280,410 380,400 480,380 580,370 680,350" fill="none" stroke="#0ea5e9" stroke-width="2"/>
  <text x="400" y="482" text-anchor="middle" font-family="ui-sans-serif,system-ui,sans-serif" font-size="11" fill="#94a3b8">screenshot placeholder · real shot lands v0.2</text>
</svg>
