<svg xmlns="http://www.w3.org/2000/svg" viewBox="0 0 800 500" width="800" height="500">
  <rect width="800" height="500" fill="#f8fafc"/>
  <rect x="0" y="0" width="220" height="500" fill="#0f172a"/>
  <text x="24" y="40" font-family="ui-sans-serif,system-ui,sans-serif" font-size="16" font-weight="700" fill="#fff">3api / admin</text>
  <rect x="12" y="68" width="196" height="34" rx="6" fill="#1e293b"/>
  <text x="32" y="89" font-family="ui-sans-serif,system-ui,sans-serif" font-size="13" fill="#fff">Dashboard</text>
  <text x="32" y="129" font-family="ui-sans-serif,system-ui,sans-serif" font-size="13" fill="#94a3b8">Plans</text>
  <text x="32" y="159" font-family="ui-sans-serif,system-ui,sans-serif" font-size="13" fill="#94a3b8">Users</text>
  <text x="32" y="189" font-family="ui-sans-serif,system-ui,sans-serif" font-size="13" fill="#94a3b8">Orders</text>
  <text x="32" y="219" font-family="ui-sans-serif,system-ui,sans-serif" font-size="13" fill="#94a3b8">Usage</text>
  <text x="32" y="249" font-family="ui-sans-serif,system-ui,sans-serif" font-size="13" fill="#94a3b8">Finance</text>
  <text x="32" y="279" font-family="ui-sans-serif,system-ui,sans-serif" font-size="13" fill="#94a3b8">Branding</text>
  <text x="32" y="309" font-family="ui-sans-serif,system-ui,sans-serif" font-size="13" fill="#94a3b8">Settings</text>
  <text x="248" y="48" font-family="ui-sans-serif,system-ui,sans-serif" font-size="20" font-weight="700" fill="#0f172a">Dashboard</text>
  <text x="248" y="70" font-family="ui-sans-serif,system-ui,sans-serif" font-size="12" fill="#64748b">Last 30 days · all plans</text>
  <rect x="248" y="92" width="170" height="100" rx="10" fill="#fff" stroke="#e2e8f0"/>
  <text x="266" y="118" font-family="ui-sans-serif,system-ui,sans-serif" font-size="12" fill="#64748b">Revenue (30d)</text>
  <text x="266" y="156" font-family="ui-sans-serif,system-ui,sans-serif" font-size="24" font-weight="700" fill="#0f172a">¥14,625</text>
  <text x="266" y="178" font-family="ui-sans-serif,system-ui,sans-serif" font-size="11" fill="#10b981">+18.2% vs prior</text>
  <rect x="428" y="92" width="170" height="100" rx="10" fill="#fff" stroke="#e2e8f0"/>
  <text x="446" y="118" font-family="ui-sans-serif,system-ui,sans-serif" font-size="12" fill="#64748b">Active subs</text>
  <text x="446" y="156" font-family="ui-sans-serif,system-ui,sans-serif" font-size="24" font-weight="700" fill="#0f172a">156</text>
  <text x="446" y="178" font-family="ui-sans-serif,system-ui,sans-serif" font-size="11" fill="#10b981">+12 this week</text>
  <rect x="608" y="92" width="170" height="100" rx="10" fill="#fff" stroke="#e2e8f0"/>
  <text x="626" y="118" font-family="ui-sans-serif,system-ui,sans-serif" font-size="12" fill="#64748b">Tokens served</text>
  <text x="626" y="156" font-family="ui-sans-serif,system-ui,sans-serif" font-size="24" font-weight="700" fill="#0f172a">2.43 B</text>
  <text x="626" y="178" font-family="ui-sans-serif,system-ui,sans-serif" font-size="11" fill="#64748b">avg 81 M / day</text>
  <rect x="248" y="212" width="530" height="240" rx="10" fill="#fff" stroke="#e2e8f0"/>
  <text x="270" y="240" font-family="ui-sans-serif,system-ui,sans-serif" font-size="14" font-weight="600" fill="#0f172a">Revenue trend</text>
  <polyline points="270,420 320,400 370,380 420,370 470,340 520,330 570,300 620,290 670,260 720,240 770,220" fill="none" stroke="#6366f1" stroke-width="2"/>
  <text x="514" y="482" text-anchor="middle" font-family="ui-sans-serif,system-ui,sans-serif" font-size="11" fill="#94a3b8">screenshot placeholder · real shot lands v0.2</text>
</svg>
